REM DIRINDEX 1\4,1\2\5,1\2\6,1\2\7,1\3\8,1\3\9,1\3\10,1\3\11
REM DIRNAME cjc108,folder01,folder02,folder03,folder04,folder05,folder06,folder07,folder08,folder09,folder10
TITLE ""
FILE "t_k_244-254.mp3" MP3
  TRACK 01 AUDIO
    TITLE "4:cjc108_0732"
    INDEX 01 00:00:00
  TRACK 02 AUDIO
    TITLE "0:"
    INDEX 01 00:02:32
  TRACK 03 AUDIO
    TITLE "5:cjc108_0733"
    INDEX 01 00:03:57
  TRACK 04 AUDIO
    TITLE "0:"
    INDEX 01 00:04:68
  TRACK 05 AUDIO
    TITLE "6:cjc108_0734"
    INDEX 01 00:05:07
  TRACK 06 AUDIO
    TITLE "0:"
    INDEX 01 00:07:21
  TRACK 07 AUDIO
    TITLE "7:cjc108_0735"
    INDEX 01 00:07:37
  TRACK 08 AUDIO
    TITLE "0:"
    INDEX 01 00:13:45
  TRACK 09 AUDIO
    TITLE "5:cjc108_0736"
    INDEX 01 00:14:27
  TRACK 10 AUDIO
    TITLE "0:"
    INDEX 01 00:15:36
  TRACK 11 AUDIO
    TITLE "6:cjc108_0737"
    INDEX 01 00:15:44
  TRACK 12 AUDIO
    TITLE "0:"
    INDEX 01 00:16:57
  TRACK 13 AUDIO
    TITLE "7:cjc108_0738"
    INDEX 01 00:17:08
  TRACK 14 AUDIO
    TITLE "0:"
    INDEX 01 00:21:57
  TRACK 15 AUDIO
    TITLE "5:cjc108_0739"
    INDEX 01 00:22:42
  TRACK 16 AUDIO
    TITLE "0:"
    INDEX 01 00:23:46
  TRACK 17 AUDIO
    TITLE "6:cjc108_0740"
    INDEX 01 00:23:63
  TRACK 18 AUDIO
    TITLE "0:"
    INDEX 01 00:25:11
  TRACK 19 AUDIO
    TITLE "7:cjc108_0741"
    INDEX 01 00:25:29
  TRACK 20 AUDIO
    TITLE "0:"
    INDEX 01 00:32:27
  TRACK 21 AUDIO
    TITLE "5:cjc108_0742"
    INDEX 01 00:33:11
  TRACK 22 AUDIO
    TITLE "0:"
    INDEX 01 00:34:22
  TRACK 23 AUDIO
    TITLE "6:cjc108_0743"
    INDEX 01 00:34:30
  TRACK 24 AUDIO
    TITLE "0:"
    INDEX 01 00:36:33
  TRACK 25 AUDIO
    TITLE "7:cjc108_0744"
    INDEX 01 00:36:52
  TRACK 26 AUDIO
    TITLE "0:"
    INDEX 01 00:42:12
  TRACK 27 AUDIO
    TITLE "5:cjc108_0745"
    INDEX 01 00:42:63
  TRACK 28 AUDIO
    TITLE "0:"
    INDEX 01 00:43:72
  TRACK 29 AUDIO
    TITLE "6:cjc108_0746"
    INDEX 01 00:44:07
  TRACK 30 AUDIO
    TITLE "0:"
    INDEX 01 00:45:14
  TRACK 31 AUDIO
    TITLE "7:cjc108_0747"
    INDEX 01 00:45:22
  TRACK 32 AUDIO
    TITLE "0:"
    INDEX 01 00:50:09
  TRACK 33 AUDIO
    TITLE "5:cjc108_0748"
    INDEX 01 00:50:62
  TRACK 34 AUDIO
    TITLE "0:"
    INDEX 01 00:51:63
  TRACK 35 AUDIO
    TITLE "6:cjc108_0749"
    INDEX 01 00:52:04
  TRACK 36 AUDIO
    TITLE "0:"
    INDEX 01 00:54:11
  TRACK 37 AUDIO
    TITLE "7:cjc108_0750"
    INDEX 01 00:54:29
  TRACK 38 AUDIO
    TITLE "0:"
    INDEX 01 00:59:22
  TRACK 39 AUDIO
    TITLE "5:cjc108_0751"
    INDEX 01 01:00:08
  TRACK 40 AUDIO
    TITLE "0:"
    INDEX 01 01:01:23
  TRACK 41 AUDIO
    TITLE "6:cjc108_0752"
    INDEX 01 01:01:34
  TRACK 42 AUDIO
    TITLE "0:"
    INDEX 01 01:04:39
  TRACK 43 AUDIO
    TITLE "7:cjc108_0753"
    INDEX 01 01:04:58
  TRACK 44 AUDIO
    TITLE "0:"
    INDEX 01 01:09:09
  TRACK 45 AUDIO
    TITLE "5:cjc108_0754"
    INDEX 01 01:09:59
  TRACK 46 AUDIO
    TITLE "0:"
    INDEX 01 01:11:13
  TRACK 47 AUDIO
    TITLE "6:cjc108_0755"
    INDEX 01 01:11:21
  TRACK 48 AUDIO
    TITLE "0:"
    INDEX 01 01:13:53
  TRACK 49 AUDIO
    TITLE "7:cjc108_0756"
    INDEX 01 01:13:63
  TRACK 50 AUDIO
    TITLE "0:"
    INDEX 01 01:19:30
  TRACK 51 AUDIO
    TITLE "5:cjc108_0757"
    INDEX 01 01:20:12
  TRACK 52 AUDIO
    TITLE "0:"
    INDEX 01 01:21:27
  TRACK 53 AUDIO
    TITLE "6:cjc108_0758"
    INDEX 01 01:21:41
  TRACK 54 AUDIO
    TITLE "0:"
    INDEX 01 01:22:56
  TRACK 55 AUDIO
    TITLE "7:cjc108_0759"
    INDEX 01 01:22:68
  TRACK 56 AUDIO
    TITLE "0:"
    INDEX 01 01:27:14
  TRACK 57 AUDIO
    TITLE "5:cjc108_0760"
    INDEX 01 01:28:00
  TRACK 58 AUDIO
    TITLE "0:"
    INDEX 01 01:29:19
  TRACK 59 AUDIO
    TITLE "6:cjc108_0761"
    INDEX 01 01:29:25
  TRACK 60 AUDIO
    TITLE "0:"
    INDEX 01 01:32:21
  TRACK 61 AUDIO
    TITLE "7:cjc108_0762"
    INDEX 01 01:32:33
  TRACK 62 AUDIO
    TITLE "0:"
    INDEX 01 01:38:59
  TRACK 63 AUDIO
    TITLE "5:cjc108_0763"
    INDEX 01 01:39:31
  TRACK 64 AUDIO
    TITLE "0:"
    INDEX 01 01:40:35
  TRACK 65 AUDIO
    TITLE "6:cjc108_0764"
    INDEX 01 01:40:58
  TRACK 66 AUDIO
    TITLE "0:"
    INDEX 01 01:41:69
  TRACK 67 AUDIO
    TITLE "7:cjc108_0765"
    INDEX 01 01:42:10
  TRACK 68 AUDIO
    TITLE "0:"
    INDEX 01 01:48:11
